<svg width="960" height="272" viewBox="0 0 960 272" fill="none" xmlns="http://www.w3.org/2000/svg">
<g clip-path="url(#clip0_2_436)">
<g clip-path="url(#clip1_2_436)">
<path d="M181.155 58.5393C199.61 57.483 222.757 67.0104 236.173 79.2939C266.396 106.965 268.084 156.467 240.352 186.445C210.025 219.23 151.057 220.712 118.783 190.104C104.385 176.403 96.0142 157.544 95.5117 137.672C94.7459 117.357 102.201 97.5901 116.191 82.8422C131.002 67.4215 152.596 58.9174 173.847 58.5355L174.415 60.1237C126.768 65.5625 107.809 102.214 112.327 146.922C116.387 187.094 146.299 215.418 188.176 209.457C204.236 207.31 218.741 198.745 228.379 185.716C251.921 154.344 249.407 96.5841 216.207 72.4079C205.233 64.417 194.011 61.0516 180.59 60.0772L181.155 58.5393Z" fill="#FBF6EE"/>
<path d="M173.847 58.5355L181.155 58.5393L180.59 60.0772L174.415 60.1237L173.847 58.5355Z" fill="#FBF6EE"/>
<path d="M378.219 61.0584C383.872 60.7801 406.161 60.1537 410.387 61.4132C405.718 65.5287 404.585 67.0756 407.416 73.8445C412.815 86.7552 418.755 99.5428 424.471 112.334L460.43 192.894L493.58 116.24C499.317 102.966 505.385 89.2375 510.508 75.7005C511.438 73.2459 511.752 70.4327 511.52 67.7906C511.227 64.5513 508.377 63.1657 505.602 61.2947C508.272 60.3787 523.498 60.8318 526.745 61.1897C526.273 62.3682 524.218 62.8926 522.718 63.555C517.723 67.8933 514.828 73.5542 512.203 79.5354C495.32 117.994 479.195 156.804 462.14 195.182C460.093 199.794 458.293 207.756 454.4 210.489C453.725 210.502 453.05 210.515 452.375 210.528C451.438 208.907 449.54 204.55 448.925 203.163L408.378 111.746C402.218 97.9749 395.372 80.9007 387.535 68.1244C385.165 64.2609 382.209 62.8821 378.219 61.0584Z" fill="#FBF6EE"/>
<path d="M599.427 58.1799C613.542 91.8332 627.927 125.372 642.582 158.795C648.642 172.716 654.852 188.818 662.232 201.991C664.182 205.476 668.705 207.718 672.305 209.221C666.05 209.276 644.667 209.923 640.085 208.8L640.047 208.128C641.48 207.018 644.15 205.275 643.955 203.507C642.995 194.989 628.842 159.388 624.35 153.553C622.842 153.9 622.715 154.176 621.53 155.157C621.875 152.25 623.615 152.286 623.225 151.319C615.575 132.405 602.72 100.445 594.102 83.197L592.692 82.7019L590.93 81.1776C593.652 73.7703 596.502 65.432 599.427 58.1799Z" fill="#FBF6EE"/>
<path d="M309.897 61.0756C313.725 60.8423 336.705 59.8581 338.396 61.7073C336.486 62.6795 334.319 63.6833 333.254 65.6473C332.327 67.3554 331.953 69.3659 331.872 71.2924C331.251 86.206 330.813 198.746 332.997 204.151C334.118 206.927 337.106 207.901 339.638 209.054C330.437 209.602 318.189 209.235 308.767 209.223C315.036 206.499 317.226 205.238 317.155 197.806C316.737 154.179 318.396 110.149 316.414 66.657C316.302 64.1724 311.811 62.0209 309.897 61.0756Z" fill="#FBF6EE"/>
<path d="M819.898 133.903C820.7 123.043 820.227 110.123 820.302 99.1579C820.347 91.6929 821.622 68.9173 817.302 63.624L813.29 61.4365C815.63 60.6541 839.105 60.528 841.43 61.2715C838.407 63.1799 835.303 64.8003 835.093 68.5377C834.343 81.5226 834.747 97.7064 834.74 110.619L834.688 167.475C834.68 178.435 834.508 189.417 835.01 200.365C835.205 204.536 837.762 206.196 840.688 208.743C838.355 209.649 817.843 209.398 814.82 208.799C815.923 206.705 819.665 204.156 819.785 201.571C820.715 181.51 820.235 155.306 820.198 135.486C812.885 135.492 802.993 135.769 795.905 135.175C801.898 134.093 815.66 135.822 819.898 133.903Z" fill="#FBF6EE"/>
<path d="M731.052 135.571L730.917 177.899C730.895 185.256 730.58 193.079 731.345 200.389C731.712 203.877 733.872 205.564 736.047 208.064L736.64 208.735C733.73 209.568 713.3 209.43 709.985 208.832C715.37 205.196 716.57 203.929 716.742 197.184C716.922 190.313 716.585 183.438 716.592 176.561L716.667 126.663V89.5564C716.66 82.9225 716.825 75.5992 716.262 69.0006C715.797 63.5302 712.887 63.5175 709.94 61.2129C711.815 60.5415 736.002 60.8566 739.632 60.8596C737.757 61.7853 733.25 63.4462 732.755 64.8363C729.875 73.0156 730.542 128.392 731.495 133.82C735.215 135.842 751.22 134.065 757.632 135.176C751.55 135.861 737.69 135.537 731.052 135.571Z" fill="#FBF6EE"/>
<path d="M620.399 156.22L621.292 156.63C614.443 163.419 608.329 167.55 597.886 167.976C589.208 168.33 581.586 164.68 573.364 163.379C571.432 163.011 571.072 162.93 569.324 162.086C588.25 158.127 602.661 173.762 620.399 156.22Z" fill="#FBF6EE"/>
<path d="M561.043 165.608L558.403 167.673L558 167.54C566.934 154.33 582.239 148.134 598.164 152.269C603.347 153.615 609.712 155.025 615.053 154.651L615.783 154.597L614.982 155.797C596.024 158.72 577.813 146.028 561.68 164.231C561.31 164.87 561.18 164.927 561.043 165.608Z" fill="#FBF6EE"/>
<path d="M615.783 154.597C618.243 153.89 624.227 151.139 625 151.182C624.341 153.104 622.615 154.986 621.292 156.63L620.399 156.22C621.412 155.085 621.428 155.083 622.087 153.746C621.009 153.609 616.757 155.303 614.982 155.797L615.783 154.597Z" fill="#FBF6EE"/>
<path d="M569.325 162.086C571.072 162.93 571.432 163.011 573.364 163.379C567.68 163.408 566.232 163.554 561.043 165.608C561.18 164.927 561.31 164.87 561.68 164.231C564.207 163.455 566.755 162.74 569.325 162.086Z" fill="#FBF6EE"/>
<path d="M590.93 81.1776L592.693 82.7019C590.09 89.4573 559.295 163.705 560.03 166.296C556.79 170.924 546.238 195.23 546.815 201.523C547.205 205.789 549.77 206.122 552.973 208.808C551.263 209.592 534.388 209.276 532.018 209.028C533.405 206.703 540.193 205.007 542.863 199.056C548.06 187.447 553.093 175.01 557.878 163.303L590.93 81.1776Z" fill="#FBF6EE"/>
<path d="M731.495 133.82C738.283 132.607 815.72 132.79 819.898 133.903C815.66 135.822 801.898 134.093 795.905 135.175C791.42 135.786 762.845 135.521 757.633 135.176C751.22 134.065 735.215 135.842 731.495 133.82Z" fill="#FBF6EE"/>
</g>
</g>
<defs>
<clipPath id="clip0_2_436">
<rect width="960" height="272" fill="white"/>
</clipPath>
<clipPath id="clip1_2_436">
<rect width="1536" height="1024" fill="white" transform="translate(-301 -87)"/>
</clipPath>
</defs>
</svg>
